<svg width="3236" height="1133" viewBox="0 0 3236 1133" fill="none" xmlns="http://www.w3.org/2000/svg">
<path d="M0.309692 103.938V12.3281H398.778V103.938H252.716V537H147.013V103.938H0.309692ZM436.114 537V12.3281H541.817V222.453H725.677V12.3281H832.02V537H725.677V312.781H541.817V537H436.114ZM912.278 537V12.3281H1266.54V103.938H1018.62V221.172H1241.56V310.859H1018.62V446.031H1273.59V537H912.278ZM217.981 858.344C217.981 775.062 239.976 708.651 283.966 659.109C328.382 609.568 385.398 584.797 455.012 584.797C501.565 584.797 541.71 597.609 575.45 623.234C609.19 648.432 633.96 680.25 649.762 718.688L558.153 748.156C546.195 726.802 532.315 709.505 516.512 696.266C500.71 683.026 479.997 676.406 454.372 676.406C415.507 676.406 384.544 693.062 361.481 726.375C338.846 759.26 327.528 803.25 327.528 858.344C327.528 914.292 339.059 958.922 362.122 992.234C385.184 1025.12 415.934 1041.56 454.372 1041.56C479.997 1041.56 502.846 1033.23 522.919 1016.58C543.419 999.922 557.94 979.849 566.481 956.359L662.575 986.469C657.45 999.281 651.257 1011.88 643.997 1024.27C636.736 1036.65 626.913 1049.68 614.528 1063.34C602.57 1076.58 589.117 1088.33 574.169 1098.58C559.648 1108.4 541.924 1116.52 520.997 1122.92C500.497 1129.33 478.502 1132.53 455.012 1132.53C386.679 1132.53 330.091 1108.19 285.247 1059.5C240.403 1010.81 217.981 943.76 217.981 858.344ZM811.379 831.438H902.989C957.655 831.438 984.989 806.667 984.989 757.125C984.989 735.771 977.728 718.901 963.207 706.516C948.687 694.13 928.4 687.938 902.348 687.938H811.379V831.438ZM705.036 1121V596.328H922.207C977.728 596.328 1020.44 610.635 1050.33 639.25C1080.23 667.865 1095.18 704.167 1095.18 748.156C1095.18 784.031 1087.92 813.073 1073.39 835.281C1058.87 857.062 1041.79 872.438 1022.14 881.406C1037.09 893.365 1047.56 905.109 1053.54 916.641C1059.94 928.172 1065.28 946.964 1069.55 973.016C1078.95 1020.85 1099.02 1070.18 1129.77 1121H1010.61C986.27 1081.28 968.76 1034.52 958.082 980.703C953.812 960.203 947.832 945.255 940.145 935.859C932.457 926.464 920.499 921.766 904.27 921.766H811.379V1121H705.036ZM1160.06 921.125V596.328H1267.04V921.766C1267.04 1001.63 1297.79 1041.56 1359.29 1041.56C1420.79 1041.56 1451.54 1001.63 1451.54 921.766V596.328H1558.53V921.125C1558.53 989.458 1541.87 1041.78 1508.56 1078.08C1475.67 1114.38 1425.92 1132.53 1359.29 1132.53C1295.66 1132.53 1246.54 1115.23 1211.95 1080.64C1177.36 1045.62 1160.06 992.448 1160.06 921.125ZM1636.22 1121V596.328H1764.35L1841.86 817.344C1847.84 834.854 1855.53 859.198 1864.93 890.375C1874.32 921.125 1880.73 941.839 1884.14 952.516H1886.71C1909.77 882.047 1924.72 836.99 1931.55 817.344L2007.14 596.328H2135.91V1121H2030.21V918.562C2030.21 885.25 2034.05 830.583 2041.74 754.562H2038.53L1993.69 891.656L1923.22 1096.66H1848.91L1779.08 891.656L1733.6 753.281H1729.75C1737.44 816.062 1741.28 871.156 1741.28 918.562V1121H1636.22ZM2216.81 1121V596.328H2419.89C2478.82 596.328 2522.6 608.927 2551.21 634.125C2579.83 658.896 2594.14 693.276 2594.14 737.266C2594.14 760.755 2588.58 781.682 2577.48 800.047C2566.8 817.984 2552.71 832.078 2535.2 842.328C2554.84 850.443 2572.57 865.177 2588.37 886.531C2604.17 907.458 2612.07 933.51 2612.07 964.688C2612.07 1010.39 2597.34 1047.97 2567.87 1077.44C2538.4 1106.48 2497.62 1121 2445.51 1121H2216.81ZM2323.15 1030.03H2430.14C2448.93 1030.03 2465.37 1024.48 2479.46 1013.38C2493.99 1002.27 2501.25 986.042 2501.25 964.688C2501.25 945.042 2494.84 928.812 2482.03 916C2469.64 902.76 2451.49 896.141 2427.57 896.141H2323.15V1030.03ZM2323.15 806.453H2411.56C2433.34 806.453 2450.64 801.328 2463.45 791.078C2476.69 780.828 2483.31 765.667 2483.31 745.594C2483.31 707.156 2460.03 687.938 2413.48 687.938H2323.15V806.453ZM2628.91 1001.2L2721.16 969.812C2732.26 990.312 2749.13 1007.4 2771.77 1021.06C2794.83 1034.73 2818.75 1041.56 2843.52 1041.56C2867.86 1041.56 2887.29 1035.8 2901.82 1024.27C2916.76 1012.31 2924.24 997.359 2924.24 979.422C2924.24 958.922 2915.91 942.693 2899.25 930.734C2882.6 918.349 2858.04 906.604 2825.58 895.5C2775.19 878.844 2741.45 866.031 2724.36 857.062C2673.54 829.302 2648.13 788.302 2648.13 734.062C2648.13 689.646 2665.85 653.771 2701.3 626.438C2736.75 598.677 2782.23 584.797 2837.75 584.797C2885.59 584.797 2925.95 596.115 2958.83 618.75C2992.14 640.958 3016.7 669.786 3032.5 705.234L2942.82 734.703C2914.63 695.839 2879.39 676.406 2837.11 676.406C2812.77 676.406 2793.55 681.745 2779.46 692.422C2765.36 702.672 2758.32 716.339 2758.32 733.422C2758.32 740.682 2759.38 747.302 2761.52 753.281C2763.65 759.26 2767.71 764.812 2773.69 769.938C2780.1 775.062 2785.44 779.333 2789.71 782.75C2794.4 786.167 2802.09 790.01 2812.77 794.281C2823.87 798.552 2831.99 801.755 2837.11 803.891C2842.66 805.599 2852.49 808.589 2866.58 812.859C2881.1 817.13 2890.71 820.12 2895.41 821.828C2914.63 828.234 2931.71 835.281 2946.66 842.969C2962.03 850.656 2976.77 860.479 2990.86 872.438C3004.96 883.969 3015.85 898.49 3023.53 916C3031.22 933.51 3035.07 953.156 3035.07 974.938C3035.07 1024.91 3016.49 1063.77 2979.33 1091.53C2942.6 1118.86 2896.48 1132.53 2840.96 1132.53C2792.7 1132.53 2749.56 1120.79 2711.55 1097.3C2673.54 1073.81 2645.99 1041.78 2628.91 1001.2Z" fill="#111111"/>
<path d="M1434.11 274.344C1434.11 191.062 1456.1 124.651 1500.09 75.1094C1544.51 25.5677 1601.52 0.796875 1671.14 0.796875C1717.69 0.796875 1757.83 13.6094 1791.57 39.2344C1825.31 64.4323 1850.08 96.25 1865.89 134.688L1774.28 164.156C1762.32 142.802 1748.44 125.505 1732.64 112.266C1716.83 99.026 1696.12 92.4062 1670.5 92.4062C1631.63 92.4062 1600.67 109.062 1577.61 142.375C1554.97 175.26 1543.65 219.25 1543.65 274.344C1543.65 330.292 1555.18 374.922 1578.25 408.234C1601.31 441.12 1632.06 457.562 1670.5 457.562C1696.12 457.562 1718.97 449.234 1739.04 432.578C1759.54 415.922 1774.06 395.849 1782.61 372.359L1878.7 402.469C1873.57 415.281 1867.38 427.88 1860.12 440.266C1852.86 452.651 1843.04 465.677 1830.65 479.344C1818.69 492.583 1805.24 504.328 1790.29 514.578C1775.77 524.401 1758.05 532.516 1737.12 538.922C1716.62 545.328 1694.63 548.531 1671.14 548.531C1602.8 548.531 1546.21 524.188 1501.37 475.5C1456.53 426.812 1434.11 359.76 1434.11 274.344ZM1893.61 274.984C1893.61 192.557 1914.54 126.359 1956.39 76.3906C1998.68 25.9948 2054.2 0.796875 2122.96 0.796875C2191.72 0.796875 2247.02 25.9948 2288.88 76.3906C2331.16 126.359 2352.3 192.557 2352.3 274.984C2352.3 357.411 2331.16 423.609 2288.88 473.578C2247.02 523.547 2191.72 548.531 2122.96 548.531C2053.77 548.531 1998.25 523.547 1956.39 473.578C1914.54 423.609 1893.61 357.411 1893.61 274.984ZM2003.8 274.984C2003.8 331.786 2014.26 376.417 2035.19 408.875C2056.12 441.333 2085.37 457.562 2122.96 457.562C2160.54 457.562 2189.8 441.333 2210.72 408.875C2231.65 375.99 2242.11 331.359 2242.11 274.984C2242.11 219.036 2231.65 174.62 2210.72 141.734C2189.8 108.849 2160.54 92.4062 2122.96 92.4062C2085.37 92.4062 2056.12 108.849 2035.19 141.734C2014.26 174.62 2003.8 219.036 2003.8 274.984ZM2406.29 537V12.3281H2570.29C2651.86 12.3281 2714.01 35.1771 2756.71 80.875C2799.42 126.146 2820.78 190.635 2820.78 274.344C2820.78 301.25 2818.43 326.448 2813.73 349.938C2809.46 373.427 2801.34 396.917 2789.39 420.406C2777.85 443.896 2762.91 463.969 2744.54 480.625C2726.6 497.281 2702.69 510.948 2672.79 521.625C2642.9 531.875 2608.73 537 2570.29 537H2406.29ZM2512.64 447.312H2560.04C2610.01 447.312 2647.38 433.646 2672.15 406.312C2696.92 378.979 2709.31 334.99 2709.31 274.344C2709.31 211.99 2696.5 167.786 2670.87 141.734C2645.25 115.682 2608.73 102.656 2561.32 102.656H2512.64V447.312ZM2874.13 537V12.3281H3228.39V103.938H2980.47V221.172H3203.41V310.859H2980.47V446.031H3235.44V537H2874.13Z" fill="white"/>
</svg>
