<?xml version="1.0" encoding="UTF-8"?>
<svg id="Layer_2" data-name="Layer 2" xmlns="http://www.w3.org/2000/svg" viewBox="0 0 1935.59 300.18">
  <defs>
    <style>
      .cls-1 {
        fill: #204ee9;
      }

      .cls-2 {
        fill: #2b2b2b;
      }
    </style>
  </defs>
  <g id="Layer_1-2" data-name="Layer 1">
    <g>
      <g>
        <path class="cls-2" d="M596.67,206.95c7.76-1.17,14.31-3.85,19.65-8.04,3.33-2.52,6.01-5.52,8.04-8.98,1.75-3,2.78-6.21,3.08-9.65,.08-.91,.8-1.63,1.71-1.63h20.17c1,0,1.83,.85,1.77,1.85-.36,5.82-2.02,11.39-5,16.72-3.29,5.9-7.68,11.05-13.17,15.47-5.49,4.5-11.8,8.08-18.91,10.73-7.11,2.66-14.54,3.99-22.28,3.99-11.07,0-20.76-1.98-29.04-5.94-8.29-3.96-15.17-9.32-20.66-16.07-5.58-6.66-9.77-14.38-12.56-23.16-2.79-8.78-4.19-18.03-4.19-27.75v-5.67c0-9.63,1.39-18.86,4.19-27.69,2.79-8.82,6.98-16.61,12.56-23.36,5.49-6.66,12.38-11.97,20.66-15.94,8.28-3.96,17.96-5.94,29.04-5.94,8.64,0,16.59,1.37,23.84,4.12,7.25,2.74,13.53,6.46,18.84,11.14,5.22,4.77,9.32,10.4,12.29,16.88,2.73,5.95,4.2,12.28,4.43,18.99,.03,.99-.79,1.81-1.77,1.81h-20.19c-.92,0-1.65-.72-1.71-1.64-.27-3.8-1.22-7.42-2.83-10.85-1.85-3.92-4.35-7.36-7.5-10.33-3.15-2.97-6.91-5.31-11.28-7.02-4.37-1.71-9.07-2.57-14.11-2.57-7.75,0-14.25,1.55-19.52,4.66-5.27,3.11-9.52,7.14-12.76,12.09-3.24,5.04-5.56,10.67-6.95,16.88-1.4,6.21-2.09,12.47-2.09,18.77v5.67c0,6.39,.7,12.72,2.09,18.97,1.4,6.26,3.71,11.86,6.95,16.81,3.15,5.04,7.36,9.11,12.63,12.22,6.29,3.71,14.4,5.2,24.35,4.48,.08,0,.16-.01,.23-.03Z"/>
        <path class="cls-2" d="M822.36,120.38c2.74-9.14,6.68-16.99,11.82-23.57,5.04-6.57,11.16-11.71,18.37-15.4,7.2-3.69,15.26-5.54,24.17-5.54s16.36,1.46,22.89,4.39c5.24,2.35,9.91,5.55,14.02,9.61,1.09,1.07,2.93,.28,2.93-1.25V19.01c0-.96,.78-1.74,1.74-1.74h21.5c.96,0,1.74,.78,1.74,1.74V222.96c0,.96-.78,1.74-1.74,1.74h-19.59c-.92,0-1.67-.71-1.74-1.62l-.68-9.66c-.1-1.5-1.93-2.17-2.97-1.09-4.28,4.47-9.19,7.96-14.74,10.48-6.75,3.06-14.63,4.59-23.63,4.59s-16.81-1.89-23.97-5.67c-7.16-3.78-13.26-9-18.3-15.67-5.04-6.66-8.96-14.52-11.75-23.57-2.79-9.05-4.19-18.79-4.19-29.24v-2.84c0-10.89,1.37-20.91,4.12-30.05Zm23.16,53.14c1.53,6.39,3.92,12.02,7.16,16.88,3.15,4.86,7.2,8.71,12.15,11.55,4.95,2.83,10.89,4.25,17.83,4.25,8.37,0,15.31-1.89,20.8-5.67,5.38-3.7,9.68-8.65,12.89-14.86,.13-.26,.21-.55,.21-.85V117.95c0-.31-.08-.63-.23-.9-3.22-5.75-7.51-10.49-12.87-14.23-5.49-3.83-12.34-5.74-20.53-5.74-7.02,0-13.03,1.44-18.03,4.32-5,2.88-9.07,6.75-12.22,11.62-3.24,4.95-5.63,10.65-7.16,17.08-1.53,6.44-2.3,13.21-2.3,20.32v2.84c0,7.11,.76,13.87,2.3,20.26Z"/>
        <path class="cls-2" d="M1000.17,222.14c-8.6-3.51-15.96-8.42-22.08-14.72-6.12-6.3-10.89-13.78-14.32-22.42-3.42-8.64-5.13-18.05-5.13-28.23v-5.67c0-11.8,1.89-22.35,5.67-31.67,3.78-9.32,8.82-17.22,15.13-23.7,6.21-6.39,13.3-11.3,21.27-14.72,7.97-3.42,16.14-5.13,24.51-5.13,10.53,0,19.74,1.82,27.62,5.47,7.88,3.65,14.43,8.67,19.65,15.06,5.22,6.48,9.12,14.09,11.68,22.82,2.57,8.73,3.85,18.19,3.85,28.36v9.47c0,.96-.78,1.74-1.74,1.74h-102.65v.94c.63,7.11,2.05,13.37,4.25,18.77,2.21,5.4,5.25,10.18,9.12,14.32,3.96,4.41,8.73,7.88,14.32,10.4,5.58,2.52,11.75,3.78,18.5,3.78,8.91,0,16.83-1.8,23.77-5.4,6.41-3.33,11.82-7.66,16.23-13,.6-.72,1.64-.86,2.39-.28l12.62,9.83c.74,.57,.92,1.63,.38,2.39-4.84,6.83-11.8,12.92-20.87,18.28-9.68,5.72-21.63,8.58-35.86,8.58-10.27,0-19.7-1.76-28.29-5.27Zm10.74-122.97c-4.5,1.85-8.56,4.53-12.15,8.04-3.6,3.6-6.64,7.99-9.12,13.17-2.22,4.64-3.85,9.92-4.87,15.83-.18,1.07,.66,2.06,1.74,2.06h76.53v-1.22c0-4.5-.86-9.34-2.57-14.52-1.71-5.18-4.1-9.66-7.16-13.44-3.06-3.78-6.91-6.84-11.55-9.19-4.64-2.34-10.15-3.51-16.54-3.51-5.04,0-9.81,.92-14.32,2.77Z"/>
        <path class="cls-2" d="M1176.5,206.95c7.76-1.17,14.31-3.85,19.65-8.04,3.33-2.52,6.01-5.52,8.04-8.98,1.75-3,2.78-6.21,3.08-9.65,.08-.91,.8-1.63,1.71-1.63h20.17c1,0,1.83,.85,1.77,1.85-.36,5.82-2.02,11.39-5,16.72-3.29,5.9-7.68,11.05-13.17,15.47-5.49,4.5-11.8,8.08-18.91,10.73-7.11,2.66-14.54,3.99-22.28,3.99-11.07,0-20.76-1.98-29.04-5.94-8.29-3.96-15.17-9.32-20.66-16.07-5.58-6.66-9.77-14.38-12.56-23.16-2.79-8.78-4.19-18.03-4.19-27.75v-5.67c0-9.63,1.39-18.86,4.19-27.69,2.79-8.82,6.98-16.61,12.56-23.36,5.49-6.66,12.38-11.97,20.66-15.94,8.28-3.96,17.96-5.94,29.04-5.94,8.64,0,16.59,1.37,23.84,4.12,7.25,2.74,13.53,6.46,18.84,11.14,5.22,4.77,9.32,10.4,12.29,16.88,2.73,5.95,4.2,12.28,4.43,18.99,.03,.99-.79,1.81-1.77,1.81h-20.19c-.92,0-1.65-.72-1.71-1.64-.27-3.8-1.22-7.42-2.83-10.85-1.85-3.92-4.35-7.36-7.5-10.33-3.15-2.97-6.91-5.31-11.28-7.02-4.37-1.71-9.07-2.57-14.11-2.57-7.75,0-14.25,1.55-19.52,4.66-5.27,3.11-9.52,7.14-12.76,12.09-3.24,5.04-5.56,10.67-6.95,16.88-1.4,6.21-2.09,12.47-2.09,18.77v5.67c0,6.39,.7,12.72,2.09,18.97,1.4,6.26,3.71,11.86,6.95,16.81,3.15,5.04,7.36,9.11,12.63,12.22,6.29,3.71,14.4,5.2,24.35,4.48,.08,0,.16-.01,.23-.03Z"/>
        <path class="cls-2" d="M1337.29,76.82c4.21,.53,7.54,1.22,9.99,2.07,.77,.27,1.21,1.06,1.1,1.87l-2.93,21.23c-.14,1-1.11,1.65-2.1,1.45-4.19-.88-8.19-1.53-12-1.97-4.37-.49-8.94-.74-13.71-.74-6.13,0-11.66,.74-16.61,2.23-4.95,1.49-9.28,3.67-12.97,6.55-3.33,2.52-6.24,5.61-8.71,9.25-2.42,3.56-4.43,7.53-6.03,11.91-.07,.2-.11,.43-.11,.64v91.66c0,.96-.78,1.74-1.74,1.74h-21.64c-.96,0-1.74-.78-1.74-1.74V80.32c0-.96,.78-1.74,1.74-1.74h20.38c.93,0,1.69,.72,1.74,1.65l.99,17.94,.14,3.65c5.94-8.01,13.08-14.34,21.41-18.97,8.33-4.64,17.8-6.95,28.43-6.95,4.59,0,9.39,.32,14.38,.94Z"/>
        <path class="cls-2" d="M1460.01,209.26c-.12-1.57-2.09-2.19-3.07-.96-4.35,5.45-9.52,9.82-15.51,13.11-7.29,4-15.71,6.01-25.25,6.01-7.65,0-14.59-1.2-20.8-3.58-6.21-2.38-11.53-6.1-15.94-11.14-4.41-5.04-7.81-11.46-10.2-19.24-2.39-7.79-3.58-17.13-3.58-28.03V80.32c0-.96,.78-1.74,1.74-1.74h21.5c.96,0,1.74,.78,1.74,1.74v85.37c0,7.92,.63,14.5,1.89,19.72,1.26,5.22,3.15,9.37,5.67,12.42,2.52,3.15,5.6,5.36,9.25,6.62,3.65,1.26,7.85,1.89,12.63,1.89,5.58,0,10.58-.65,14.99-1.96,4.41-1.31,8.24-3.13,11.48-5.47,2.7-1.89,5.06-4.16,7.09-6.82,1.95-2.55,3.59-5.34,4.91-8.36,.1-.23,.15-.49,.15-.74V80.32c0-.96,.78-1.74,1.74-1.74h21.64c.96,0,1.74,.78,1.74,1.74V222.96c0,.96-.78,1.74-1.74,1.74h-19.33c-.91,0-1.67-.7-1.74-1.61l-1.02-13.84Z"/>
        <path class="cls-2" d="M1530.61,87.16c.08,1.63,2.11,2.23,3.12,.94,2.48-3.15,5.42-5.74,8.81-7.78,4.82-2.88,10.65-4.37,17.49-4.46,3.87,0,7.36,.43,10.47,1.28,3.11,.86,5.83,2.09,8.17,3.72,1.71,1.26,3.26,2.79,4.66,4.59,1.4,1.8,2.59,3.83,3.58,6.08,1.26-2.07,2.75-4.01,4.46-5.81,1.71-1.8,3.56-3.38,5.54-4.73,2.52-1.53,5.33-2.74,8.44-3.65,3.11-.9,6.5-1.4,10.2-1.49,5.04,0,9.59,.74,13.64,2.23,4.05,1.49,7.47,3.67,10.26,6.55,3.06,3.24,5.4,7.45,7.02,12.63,1.62,5.18,2.43,11.28,2.43,18.3v107.38c0,.96-.78,1.74-1.74,1.74h-20.28c-.96,0-1.74-.78-1.74-1.74V115.31c0-3.06-.36-5.76-1.08-8.1-.72-2.34-1.76-4.27-3.11-5.81-1.44-1.44-3.22-2.52-5.34-3.24-2.12-.72-4.57-1.08-7.36-1.08-2.97,0-5.54,.4-7.7,1.22-2.16,.81-3.96,1.89-5.4,3.24-1.44,1.44-2.57,3.09-3.38,4.93-.81,1.85-1.35,3.9-1.62,6.14v110.35c0,.96-.78,1.74-1.74,1.74h-20.28c-.96,0-1.74-.78-1.74-1.74V115.18c0-3.06-.34-5.76-1.01-8.1-.68-2.34-1.74-4.28-3.18-5.81-1.35-1.44-3.04-2.5-5.06-3.17-2.03-.67-4.39-1.01-7.09-1.01-2.97,0-5.56,.34-7.76,1.01-2.21,.67-4.08,1.64-5.61,2.9-1.17,.99-2.18,2.11-3.04,3.38-.79,1.16-1.44,2.39-1.96,3.7-.09,.23-.13,.47-.13,.72v114.17c0,.96-.78,1.74-1.74,1.74h-20.28c-.96,0-1.74-.78-1.74-1.74V80.32c0-.96,.78-1.74,1.74-1.74h19.02c.93,0,1.7,.73,1.74,1.66l.34,6.93Z"/>
        <path class="cls-2" d="M1795.12,171.7c-.94,5.9-2.32,11.41-4.12,16.54-2.43,6.75-5.6,12.81-9.52,18.17-3.92,5.36-8.62,9.79-14.11,13.3-3.96,2.43-8.31,4.32-13.03,5.67-4.73,1.35-9.84,2.03-15.33,2.03-6.3,0-12.04-.77-17.22-2.3-5.18-1.53-9.84-3.74-13.98-6.62-1.98-1.44-3.87-3.01-5.67-4.73-1.8-1.71-3.51-3.6-5.13-5.67l-1.1,15c-.07,.91-.83,1.62-1.74,1.62h-19.59c-.96,0-1.74-.78-1.74-1.74V19.01c0-.96,.78-1.74,1.74-1.74h21.5c.96,0,1.74,.78,1.74,1.74V89.63c0,1.57,1.9,2.33,2.98,1.2,1.24-1.3,2.54-2.52,3.91-3.67,2.52-2.11,5.22-3.94,8.1-5.47,3.6-1.89,7.56-3.33,11.88-4.32,4.32-.99,9-1.49,14.05-1.49,6.3,0,12.11,.85,17.42,2.56,5.31,1.71,10.13,4.1,14.45,7.16,3.87,2.88,7.34,6.37,10.4,10.47,3.06,4.1,5.76,8.67,8.1,13.71,2.43,5.67,4.28,11.95,5.54,18.84,1.26,6.89,1.89,14.16,1.89,21.81v2.84c0,6.39-.47,12.54-1.42,18.43Zm-24.44-34.71c-.59-4.36-1.47-8.48-2.63-12.36-1.62-4.77-3.74-9.13-6.35-13.1-2.61-3.96-5.81-7.07-9.59-9.32-2.61-1.62-5.54-2.88-8.78-3.78-3.24-.9-6.84-1.35-10.8-1.35-4.32,0-8.28,.56-11.88,1.69-3.6,1.13-6.8,2.68-9.59,4.66-2.88,2.07-5.43,4.48-7.63,7.23-2.12,2.64-3.93,5.51-5.42,8.6-.12,.25-.18,.52-.18,.8v63.02c0,.29,.07,.58,.2,.84,1.58,3.09,3.42,5.95,5.54,8.58,2.21,2.75,4.75,5.16,7.63,7.23,2.88,2.07,6.12,3.67,9.72,4.79,3.6,1.13,7.56,1.69,11.88,1.69s7.92-.52,11.35-1.55c3.42-1.04,6.48-2.54,9.18-4.52,3.6-2.52,6.62-5.72,9.05-9.59,2.43-3.87,4.37-8.19,5.81-12.96,1.17-3.6,2.02-7.47,2.57-11.62,.54-4.14,.81-8.37,.81-12.69v-2.84c0-4.59-.29-9.07-.88-13.44Z"/>
        <path class="cls-2" d="M1908.85,177.91c-1.17-2.38-3.15-4.57-5.94-6.55-2.79-1.98-6.48-3.8-11.07-5.47-4.59-1.67-10.31-3.18-17.15-4.52-8.37-1.71-16-3.78-22.89-6.21-6.89-2.43-12.76-5.36-17.63-8.78-4.95-3.33-8.78-7.27-11.48-11.82-2.7-4.54-4.05-9.84-4.05-15.87s1.39-11.5,4.19-16.68c2.79-5.18,6.71-9.7,11.75-13.57,5.04-3.87,11.05-6.93,18.03-9.19,6.98-2.25,14.65-3.38,23.03-3.38,9,0,17.1,1.17,24.31,3.51,7.2,2.34,13.32,5.58,18.37,9.72,5.04,4.14,8.93,8.98,11.68,14.52,2.48,5.01,3.84,10.37,4.08,16.08,.04,.99-.78,1.81-1.77,1.81h-21.52c-.93,0-1.65-.73-1.73-1.65-.23-2.58-1.02-5.11-2.36-7.6-1.62-3.01-3.87-5.69-6.75-8.04-2.88-2.34-6.37-4.23-10.47-5.67-4.1-1.44-8.71-2.16-13.84-2.16s-9.97,.59-13.98,1.76c-4.01,1.17-7.32,2.75-9.93,4.73-2.7,1.98-4.73,4.28-6.08,6.89-1.35,2.61-2.03,5.31-2.03,8.1s.54,5.45,1.62,7.7c1.08,2.25,2.97,4.28,5.67,6.08,2.61,1.8,6.15,3.42,10.6,4.86,4.46,1.44,10.1,2.83,16.95,4.19,9,1.89,17.06,4.07,24.17,6.55,7.11,2.48,13.1,5.43,17.96,8.84,4.86,3.51,8.58,7.56,11.14,12.16,2.57,4.59,3.85,9.9,3.85,15.94,0,6.48-1.46,12.38-4.39,17.69-2.93,5.31-7,9.86-12.22,13.64-5.22,3.78-11.48,6.71-18.77,8.78-7.29,2.07-15.26,3.11-23.9,3.11-9.9,0-18.73-1.33-26.47-3.99-7.74-2.65-14.27-6.19-19.58-10.6-5.4-4.32-9.52-9.36-12.36-15.12-2.56-5.2-3.96-10.58-4.21-16.15-.04-.99,.78-1.81,1.77-1.81h21.6c.89,0,1.61,.69,1.71,1.58,.51,4.45,1.84,8.24,3.97,11.39,2.39,3.51,5.38,6.35,8.98,8.51,3.51,2.16,7.43,3.7,11.75,4.59,4.32,.9,8.6,1.35,12.83,1.35,6.66,0,12.47-.78,17.42-2.36,4.95-1.57,8.82-3.76,11.62-6.55,1.71-1.71,3.01-3.6,3.92-5.67,.9-2.07,1.35-4.28,1.35-6.62,0-2.97-.59-5.65-1.76-8.04Z"/>
        <path class="cls-2" d="M796.55,120.91c-1.13-3.35-2.43-6.5-3.93-9.54-2.53-5.13-5.57-9.81-9.16-14.02-1.88-2.19-3.9-4.21-6.05-6.05-4.41-3.9-9.4-7.11-14.94-9.68-8.24-3.83-17.54-5.74-27.9-5.74s-19.49,1.91-27.69,5.74c-8.17,3.83-15.11,9.06-20.79,15.73-5.78,6.67-10.19,14.53-13.23,23.56-3.08,9.06-4.58,18.84-4.58,29.37v2.97c0,10.53,1.5,20.31,4.58,29.3,1.13,3.28,2.39,6.43,3.86,9.4,2.6,5.2,5.71,9.88,9.37,14.12,1.81,2.15,3.79,4.14,5.88,5.98,4.41,3.9,9.4,7.11,14.97,9.68,8.24,3.79,17.54,5.68,27.9,5.68s19.49-1.88,27.69-5.68c8.17-3.79,15.18-8.99,20.92-15.66,5.68-6.67,10.05-14.5,13.09-23.52,3.08-8.99,4.62-18.77,4.62-29.3v-2.97c0-10.53-1.54-20.31-4.62-29.37Zm-103.32,32.34v-2.97c0-7.11,.85-13.92,2.56-20.45,1.71-6.53,4.34-12.27,7.86-17.23,3.42-4.96,7.69-8.89,12.82-11.8,5.13-2.94,11.15-4.41,18.09-4.41s12.99,1.47,18.15,4.41c2.65,1.48,5.09,3.25,7.31,5.28,.73,.67,.73,1.82,.03,2.52l-62.23,62.23c-.97,.97-2.67,.5-2.95-.85-1.1-5.35-1.65-10.93-1.65-16.74Zm82.94,0c0,7.21-.85,14.09-2.56,20.62-1.71,6.53-4.27,12.24-7.69,17.2-3.52,4.96-7.86,8.89-13.06,11.76-5.16,2.87-11.18,4.31-18.02,4.31s-13.03-1.44-18.22-4.31c-2.75-1.52-5.24-3.32-7.48-5.42-.72-.67-.71-1.82-.01-2.51l62.33-62.33c.97-.97,2.66-.5,2.95,.83,1.17,5.42,1.77,11.04,1.77,16.88v2.97Z"/>
      </g>
      <g>
        <path class="cls-1" d="M400.88,82.77V217.42s-94.59,63.22-94.59,63.22l-52.84-52.84,50.83-50.83c14.82-14.82,14.82-38.94,0-53.76l-50.83-50.83,52.74-52.74,94.69,63.12ZM306.09,0c-4.8,0-9.57,1.85-13.16,5.45l-53.77,53.77c-7.27,7.27-7.27,19.04,0,26.31l51.4,51.4c7.26,7.27,7.26,19.04,0,26.31l-51.4,51.4c-7.27,7.26-7.27,19.04,0,26.31l53.77,53.77c3.6,3.59,8.36,5.45,13.16,5.45,3.57,0,7.17-1.03,10.31-3.12l95.6-63.73c5.18-3.45,8.28-9.26,8.28-15.48v-67.76s0-67.76,0-67.76c0-6.22-3.11-12.03-8.28-15.48L316.41,3.12C313.26,1.03,309.67,0,306.09,0h0Z"/>
        <path class="cls-1" d="M8.28,233.33C3.11,229.88,0,224.07,0,217.85v-67.76S0,82.33,0,82.33c0-6.22,3.11-12.03,8.28-15.48L103.88,3.12c7.38-4.92,17.2-3.95,23.47,2.32l53.77,53.77c7.27,7.27,7.27,19.04,0,26.31l-51.4,51.4c-7.27,7.27-7.27,19.04,0,26.31l51.4,51.4c7.27,7.27,7.27,19.04,0,26.31l-53.77,53.77c-6.27,6.27-16.1,7.24-23.47,2.32L8.28,233.33Z"/>
      </g>
    </g>
  </g>
</svg>